Coordinates
version=1
nRows=22
nColumns=24
inDegrees=yes

Units are S.I. units (second, meters, Newtons, ...)
Angles are in degrees.

endheader
time	pelvis_tilt	pelvis_list	pelvis_rotation	pelvis_tx	pelvis_ty	pelvis_tz	hip_flexion_r	hip_adduction_r	hip_rotation_r	knee_angle_r	ankle_angle_r	subtalar_angle_r	mtp_angle_r	hip_flexion_l	hip_adduction_l	hip_rotation_l	knee_angle_l	ankle_angle_l	subtalar_angle_l	mtp_angle_l	lumbar_extension	lumbar_bending	lumbar_rotation
      0.85033333	      6.61305523	     -3.34125515	     10.18625901	     -0.49227035	      1.04202484	      0.34481330	      1.77365504	      9.95428730	     -3.36968196	    -12.47051879	      2.31805883	    -13.69298028	      4.44578139	     11.53484434	     -7.47828221	      1.25430610	    -66.16228717	     -1.84782995	     -6.19200744	     -0.45722956	     -8.11539846	      0.41260035	     -3.36458096
      0.85450000	      6.60288741	     -3.20943661	     10.13311972	     -0.48748242	      1.04278399	      0.34513276	      1.32583651	      9.86300263	     -3.41128050	    -12.19914188	      2.52015410	    -13.34796638	      4.42294422	     11.99664978	     -7.24751864	      1.22974059	    -65.74587728	     -1.09917816	     -6.14406827	     -0.72352476	     -8.17099880	      0.24658243	     -3.14582575
      0.85866667	      6.57702900	     -3.05846578	     10.06497480	     -0.48269619	      1.04349571	      0.34548028	      0.88359247	      9.75709179	     -3.37776661	    -11.91011708	      2.64420728	    -13.18755143	      4.41394489	     12.45065963	     -6.99040325	      1.19681998	    -65.26827846	     -0.41170359	     -6.05364258	     -0.81438215	     -8.22067403	      0.04619262	     -3.03873110
      0.86283333	      6.53218749	     -2.91332132	      9.97023892	     -0.47792423	      1.04417008	      0.34583398	      0.47478360	      9.64898524	     -3.34086663	    -11.64595410	      2.74278609	    -13.02676151	      4.40845787	     12.90628732	     -6.73435458	      1.14042118	    -64.73748866	      0.23072523	     -6.06395489	     -0.86079115	     -8.26097845	     -0.14392996	     -2.92042747
      0.86700000	      6.52535949	     -2.77719735	      9.86925494	     -0.47315295	      1.04485790	      0.34619282	      0.01323405	      9.55695315	     -3.29091614	    -11.35464750	      2.90898756	    -12.76668991	      4.39628389	     13.30728077	     -6.50162545	      1.07491867	    -64.15900906	      0.83678865	     -5.97467764	     -0.95727765	     -8.32477468	     -0.31449742	     -2.67006379
      0.87116667	      6.49733662	     -2.63847877	      9.74468951	     -0.46839407	      1.04548276	      0.34656438	     -0.41369097	      9.45559132	     -3.22033826	    -11.08962173	      3.04648713	    -12.56036751	      4.38253881	     13.70990680	     -6.26129370	      0.99001284	    -63.52622994	      1.39731615	     -5.95048272	     -1.03924018	     -8.37246288	     -0.49577406	     -2.46412215
      0.87533333	      6.45248633	     -2.51083555	      9.60562815	     -0.46362359	      1.04604616	      0.34694996	     -0.82116395	      9.36242790	     -3.13983595	    -10.81995691	      3.13540715	    -12.40806141	      4.37588273	     14.11713440	     -6.03548353	      0.88519816	    -62.85004380	      1.91307703	     -6.00271196	     -1.06899196	     -8.39416523	     -0.67443085	     -2.34261557
      0.87950000	      6.43729136	     -2.37172226	      9.43981293	     -0.45888999	      1.04663357	      0.34735846	     -1.25475280	      9.25914008	     -3.01792386	    -10.57061589	      3.27522018	    -12.21023188	      4.36424835	     14.46374398	     -5.80492801	      0.76388298	    -62.10862626	      2.40860099	     -5.95069645	     -1.11658319	     -8.47038826	     -0.83121963	     -2.08160493
      0.88366667	      6.40864559	     -2.24438345	      9.26626725	     -0.45414023	      1.04716044	      0.34776268	     -1.67505615	      9.16348076	     -2.89244124	    -10.31354104	      3.40658181	    -12.01723677	      4.34891793	     14.81171373	     -5.58811514	      0.63132403	    -61.32260559	      2.84699908	     -5.95465352	     -1.16672276	     -8.50734453	     -0.99298819	     -1.81410441
      0.88783333	      6.40211647	     -2.12560321	      9.08373311	     -0.44937829	      1.04768673	      0.34818529	     -2.12610071	      9.07983712	     -2.75583255	    -10.03749591	      3.54687792	    -11.81164167	      4.32112980	     15.11852374	     -5.39394220	      0.48079187	    -60.48704714	      3.24239210	     -5.96651436	     -1.23930452	     -8.55418267	     -1.15431136	     -1.47379521
      0.89200000	      6.34602502	     -2.00213635	      8.87538324	     -0.44463984	      1.04809821	      0.34862961	     -2.50170806	      8.97868790	     -2.59342131	     -9.80814573	      3.65389881	    -11.66730347	      4.30341279	     15.45906797	     -5.18584159	      0.31471417	    -59.60441107	      3.61624489	     -6.00708180	     -1.27698364	     -8.56793522	     -1.31588396	     -1.28108198
      0.89616667	      6.34489995	     -1.89183150	      8.66474066	     -0.43987777	      1.04856892	      0.34907250	     -2.95349792	      8.89921367	     -2.41630964	     -9.53938353	      3.78557550	    -11.49186143	      4.27152518	     15.72017991	     -5.00972944	      0.13865154	    -58.66515338	      3.93574892	     -6.04000414	     -1.33607368	     -8.61279600	     -1.46242562	     -0.92329676
      0.90033333	      6.28561227	     -1.77642298	      8.42628492	     -0.43514828	      1.04889931	      0.34954829	     -3.31627005	      8.79943930	     -2.22063749	     -9.32448066	      3.89338102	    -11.35665350	      4.24883422	     16.02711554	     -4.82367764	     -0.06293685	    -57.68588236	      4.24114010	     -6.10067783	     -1.37234966	     -8.62401905	     -1.62013650	     -0.69880844
      0.90450000	      6.28101667	     -1.67759808	      8.19346206	     -0.43039230	      1.04928374	      0.35001020	     -3.75665706	      8.72503870	     -2.01454123	     -9.06433861	      4.01514241	    -11.19785944	      4.20674769	     16.25689948	     -4.66731628	     -0.26008486	    -56.65433768	      4.48798919	     -6.17581255	     -1.43321200	     -8.65998768	     -1.75233406	     -0.30143913
      0.90866667	      6.21882469	     -1.57954491	      7.93501931	     -0.42566223	      1.04953744	      0.35049996	     -4.10610636	      8.63661865	     -1.79145854	     -8.86295061	      4.12307793	    -11.07693125	      4.18001036	     16.53217556	     -4.50846882	     -0.47971328	    -55.58123129	      4.72367032	     -6.25221650	     -1.46903953	     -8.65987292	     -1.88817386	     -0.08173153
      0.91283333	      6.20099844	     -1.48800395	      7.68497995	     -0.42089725	      1.04981725	      0.35097681	     -4.52479957	      8.56036778	     -1.56797148	     -8.61414199	      4.24510399	    -10.93882417	      4.13031747	     16.73930287	     -4.36561252	     -0.69539496	    -54.45772083	      4.89513246	     -6.37310136	     -1.53197529	     -8.67116274	     -2.01559291	      0.32953092
      0.91700000	      6.16079379	     -1.39489370	      7.41587932	     -0.41614439	      1.05004268	      0.35146245	     -4.90394086	      8.47321135	     -1.32455224	     -8.39656567	      4.35736319	    -10.81552511	      4.07491390	     16.94767691	     -4.22015660	     -0.92591655	    -53.28336850	      5.04324385	     -6.50535762	     -1.59954376	     -8.67458721	     -2.14376606	      0.66803340
      0.92116667	      6.08980243	     -1.30885048	      7.13204366	     -0.41140353	      1.05016728	      0.35197194	     -5.23070626	      8.38530506	     -1.07185299	     -8.21675267	      4.48181626	    -10.70968908	      4.04140637	     17.17457918	     -4.08591722	     -1.17396153	    -52.07095593	      5.17055517	     -6.62661459	     -1.64330042	     -8.65457670	     -2.26955324	      0.89534092
      0.92533333	      6.05605493	     -1.24133363	      6.86712842	     -0.40662895	      1.05029978	      0.35244144	     -5.61796554	      8.32100940	     -0.82942929	     -7.98712676	      4.60417478	    -10.59706694	      3.98600349	     17.34700708	     -3.97259590	     -1.40192978	    -50.81743203	      5.24085917	     -6.81563076	     -1.71300931	     -8.63379435	     -2.36780734	      1.29483285
      0.92950000	      5.99061543	     -1.17794057	      6.58710044	     -0.40185564	      1.05036221	      0.35291969	     -5.95527494	      8.25147869	     -0.57114423	     -7.78942953	      4.72526269	    -10.49127450	      3.93054752	     17.53315344	     -3.86311199	     -1.64241930	    -49.51867446	      5.29655178	     -6.99950093	     -1.78432370	     -8.59420169	     -2.46349928	      1.61657700
      0.93366667	      5.92929277	     -1.11198171	      6.30243243	     -0.39708088	      1.05039526	      0.35339166	     -6.29381126	      8.17540598	     -0.30812147	     -7.59864031	      4.84959937	    -10.38498364	      3.86935907	     17.69221846	     -3.75056427	     -1.88269432	    -48.17154950	      5.31578946	     -7.21502167	     -1.86527514	     -8.56163621	     -2.56037822	      1.95517916
      0.93783333	      5.83673342	     -1.05550067	      6.00663955	     -0.39231378	      1.05032633	      0.35388086	     -6.58069899	      8.10234828	     -0.03496767	     -7.44335485	      4.97845369	    -10.28751741	      3.82897612	     17.87097045	     -3.65229643	     -2.13970696	    -46.79205871	      5.33869669	     -7.40185850	     -1.92426007	     -8.50919884	     -2.65198719	      2.18838363
